<svg xmlns="http://www.w3.org/2000/svg" xmlns:xlink="http://www.w3.org/1999/xlink" version="1.1" width="80.84170532226562" height="86.1615982055664" viewBox="-0.1396999955177307 1.4004000425338745 80.84170532226562 86.1615982055664">
  <defs>
    <radialGradient id="grad_1" cx="0.52112675" cy="0.62048191" r="0.42422149" fx="0.52112675" fy="0.62048191">
      <stop offset="0.0000000" stop-color="#ffffff" stop-opacity="0.53370786"/>
      <stop offset="1.0000000" stop-color="#000000" stop-opacity="0.69101125"/>
    </radialGradient>
  <radialGradient id="grad_1-.8262400031089783,0,0,0.7087627053260803,-28.4,-16.5" cx="33.0792" cy="75.5391" r="16.9633" fx="33.0792" fy="75.5391" gradientUnits="userSpaceOnUse">
      <stop offset="0.0000000" stop-color="#ffffff" stop-opacity="0.53370786"/>
      <stop offset="1.0000000" stop-color="#000000" stop-opacity="0.69101125"/>
    </radialGradient></defs>
  <!-- Exported by Scratch - http://scratch.mit.edu/ -->
  <path id="path3079" fill="#ffff00" stroke="#000000" stroke-width="0.7737239450216293" stroke-linecap="butt" stroke-linejoin="miter" d="M 58.1113 10.2052 L 61.2675 1.9004 L 62.5958 10.3717 L 67.911 4.06 L 67.0803 10.5376 L 79.3714 5.2225 L 70.4024 13.1949 L 80.202 20.0049 L 69.5717 17.0152 L 78.2089 31.9636 L 67.911 19.6725 L 69.2399 38.2753 L 64.5889 22.1639 L 56.1182 30.8011 L 61.5992 19.3407 L 52.2978 24.3235 L 58.1113 18.5101 L 47.1492 21.4997 L 52.9626 16.3511 L 44.4919 14.358 L 54.6233 12.3649 L 53.1285 4.5583 L 58.1113 10.2052 Z "/>
  <path id="path3080" fill="#ff3f00" stroke="#000000" stroke-width="0.7737239450216293" stroke-linecap="butt" stroke-linejoin="miter" d="M 58.7761 12.6966 L 54.9557 8.7104 L 57.2812 13.8597 L 49.1423 14.5239 L 56.783 16.0187 L 52.7961 18.8425 L 60.6027 17.0152 L 59.1078 19.5066 L 63.7589 17.1811 L 61.9316 22.3304 L 65.0872 19.839 L 67.2468 25.486 L 66.2502 17.8459 L 69.9041 19.5066 L 66.7485 15.6863 L 72.0631 16.0187 L 67.911 14.1915 L 70.7348 11.0359 L 65.2537 11.8666 L 65.5855 8.7104 L 62.0975 13.5273 L 60.7692 7.2156 L 58.7761 12.6966 Z "/>
  <g id="g2445">
    <path id="path1817" fill="#a6a667" stroke="#000000" stroke-width="0.7737239450216293" stroke-linecap="butt" stroke-linejoin="miter" d="M 41.9383 3.7386 C 37.7546 3.8853 33.9912 7.0236 31.9109 8.9938 C 29.8069 11.0036 29.7085 14.7546 30.0248 17.2206 C 30.3411 19.6873 31.1662 21.5925 31.1662 21.5925 L 34.7055 20.045 C 34.7055 20.045 34.0952 18.6127 33.8544 16.7372 C 33.6161 14.8765 33.8068 12.8655 35.0348 11.4567 C 36.4467 9.7161 40.5753 7.2625 44.9107 7.9458 C 47.844 8.6762 49.5722 12.8742 52.0178 14.4934 C 54.4634 16.1133 57.7693 16.8944 62.0378 16.0408 C 63.9362 15.4782 63.8254 12.0175 61.2833 12.2496 C 57.7582 12.9546 55.8381 12.3907 54.165 11.2828 C 52.4919 10.1748 51.0701 8.2807 49.3487 6.2146 L 49.3097 6.1954 C 47.7672 4.6058 44.798 3.7095 41.9383 3.7386 Z "/>
    <path id="path2440" fill="none" stroke="#000000" stroke-width="0.7737239450216293" stroke-linecap="butt" stroke-linejoin="miter" d="M 61.9078 12.5034 C 61.9078 12.5034 57.747 16.5707 54.662 15.7759 "/>
    <path id="path2441" fill="none" stroke="#000000" stroke-width="0.7737239450216293" stroke-linecap="butt" stroke-linejoin="miter" d="M 54.1941 11.2883 C 53.3529 12.27 49.3326 10.9609 47.5562 9.6517 "/>
    <path id="path2442" fill="none" stroke="#000000" stroke-width="0.7737239450216293" stroke-linecap="butt" stroke-linejoin="miter" d="M 43.5829 3.7622 C 43.7699 4.3694 41.4326 8.0628 39.3757 8.5766 "/>
    <path id="path2443" fill="none" stroke="#000000" stroke-width="0.7737239450216293" stroke-linecap="butt" stroke-linejoin="miter" d="M 35.262 6.3328 C 35.262 6.3328 36.3372 9.3249 34.8881 11.6151 "/>
    <path id="path2444" fill="none" stroke="#000000" stroke-width="0.7737239450216293" stroke-linecap="butt" stroke-linejoin="miter" d="M 29.8391 14.5603 C 31.1483 14.5138 34.1404 17.4119 34.2803 18.674 "/>
  </g>
  <path id="path1193" fill="#000000" stroke="none" stroke-width="0.7559445252415422" stroke-linecap="butt" stroke-linejoin="miter" d="M 26.8822 19.3624 C 26.5435 20.9359 26.7902 26.4151 22.3083 31.0141 C 9.6127 34.7756 0.3603 45.4957 0.3603 58.2764 C 0.3603 74.1749 14.5785 87.062 32.083 87.062 C 49.5874 87.062 63.7874 74.1749 63.7874 58.2764 C 63.7874 44.8464 53.6031 33.6441 39.903 30.4619 C 37.5198 26.9932 35.6282 22.1781 36.2143 19.1532 C 35.1525 17.6194 30.0663 16.4043 26.8822 19.3624 Z "/>
  <path id="path2452" fill="url(#grad_1-.8262400031089783,0,0,0.7087627053260803,-28.4,-16.5)" stroke="none" stroke-width="0.9621822183188379" stroke-linecap="butt" stroke-linejoin="miter" d="M 57.1803 72.0323 C 57.1852 63.9942 45.917 57.4771 32.0163 57.4771 C 18.1148 57.4771 6.8466 63.9942 6.8515 72.0323 C 6.8466 80.0696 18.1148 86.5867 32.0163 86.5867 C 45.917 86.5867 57.1852 80.0696 57.1803 72.0323 Z "/>
</svg>