<svg xmlns="http://www.w3.org/2000/svg" xmlns:xlink="http://www.w3.org/1999/xlink" version="1.1" width="82.69657671451569" height="45.46483385562897" viewBox="0.5437998175621033 0.4457332491874695 82.69657671451569 45.46483385562897">
  <!-- Exported by Scratch - http://scratch.mit.edu/ -->
  <g id="ID0.6225546635687351">
    <path id="ID0.8981337421573699" fill="#FFEBAE" stroke="#231F20" d="M 72.9309 45.0191 L 72.5743 45.0191 C 68.4736 45.0191 65.086 41.4532 64.1945 36.461 C 61.6984 22.5541 53.3186 11.4999 42.4427 7.5775 C 45.2954 6.5077 48.5047 5.9728 51.5357 5.9728 C 64.9077 5.7945 76.3185 16.1356 80.9541 30.5773 C 83.0936 37.3525 78.9929 45.0191 72.9309 45.0191 Z " stroke-width="1.7829338312149048"/>
    <path id="ID0.39622050849720836" fill="#37B34A" stroke="#231F20" stroke-linecap="round" stroke-linejoin="round" d="M 74.7138 32.0037 C 74.7138 32.0037 85.0549 28.0812 81.6673 23.2673 C 79.1712 20.058 75.6053 21.4844 74.3572 20.058 C 73.1092 18.6317 73.4658 9.717 69.1867 9.5387 C 64.9077 9.3604 63.4814 11.8565 60.2721 10.4302 C 57.0628 9.0038 58.1325 2.7635 53.4969 4.0116 C 48.8613 5.2597 49.0396 7.2209 46.1869 6.686 C 43.3342 6.1511 40.8381 0.8023 37.2722 1.8721 C 33.7064 2.9418 32.8149 5.6162 29.9622 6.1511 C 27.1095 6.686 24.0785 3.8333 20.3344 5.0814 C 16.5902 6.3294 18.3731 10.6085 15.5204 11.4999 C 12.6677 12.3914 9.815 10.6085 8.3887 15.4224 C 6.9623 20.2363 8.3887 20.7712 7.1406 23.2673 C 5.8926 25.7634 62.4116 31.6471 74.7138 32.0037 Z " stroke-width="1.7829338312149048"/>
    <path id="ID0.6380414562299848" fill="#BE1E2D" stroke="#231F20" stroke-linecap="round" stroke-linejoin="round" d="M 75.6053 32.3602 L 72.5743 30.5773 C 71.8611 30.2207 71.6828 29.5076 72.0394 28.9727 C 72.0394 28.9727 72.0394 28.9727 72.0394 28.7944 L 73.8224 25.7634 C 74.179 25.0502 74.8921 24.8719 75.427 25.2285 C 75.427 25.2285 75.427 25.2285 75.6053 25.2285 L 78.6363 27.0114 C 79.3495 27.368 79.5278 28.0812 79.1712 28.6161 C 79.1712 28.6161 79.1712 28.6161 79.1712 28.7944 L 77.3882 31.8254 C 77.0316 32.3602 76.3185 32.7168 75.6053 32.3602 C 75.6053 32.3602 75.6053 32.3602 75.6053 32.3602 Z " stroke-width="1.7829338312149048"/>
    <path id="ID0.802543097641319" fill="none" stroke="#FFF100" stroke-linecap="round" stroke-linejoin="round" d="M 63.1248 23.089 L 62.055 19.1665 " stroke-width="1.7829338312149048"/>
    <path id="ID0.8520334078930318" fill="#BE1E2D" stroke="#231F20" stroke-linecap="round" stroke-linejoin="round" d="M 3.9314 29.5076 L 1.6135 25.4068 C 1.257 24.6936 1.4353 23.8022 2.1484 23.4456 C 2.1484 23.4456 2.1484 23.4456 2.1484 23.4456 L 6.2492 21.1278 C 6.6058 20.5929 7.4972 20.5929 7.8538 21.1278 C 8.0321 21.3061 8.0321 21.3061 8.2104 21.4844 L 10.5282 25.5851 C 10.8848 26.2983 10.7065 27.1897 9.9933 27.5463 C 9.9933 27.5463 9.9933 27.5463 9.9933 27.5463 L 5.8926 29.8641 C 5.1794 30.2207 4.2879 30.2207 3.9314 29.5076 C 3.9314 29.5076 3.9314 29.5076 3.9314 29.5076 Z " stroke-width="1.7829338312149048"/>
    <path id="ID0.20036644209176302" fill="none" stroke="#FFF100" stroke-linecap="round" stroke-linejoin="round" d="M 67.9387 23.4456 L 61.5201 26.4766 " stroke-width="1.7829338312149048"/>
    <path id="ID0.7809704001992941" fill="none" stroke="#FFF100" stroke-linecap="round" stroke-linejoin="round" d="M 76.8534 17.9185 L 69.5433 18.6317 " stroke-width="1.7829338312149048"/>
    <path id="ID0.7918770764954388" fill="#8A5D3B" stroke="#231F20" stroke-linecap="round" stroke-linejoin="round" d="M 72.9309 30.7556 C 73.4658 30.5773 73.8224 30.5773 74.3572 30.5773 C 75.427 30.7556 76.1402 31.2905 76.6751 32.182 C 77.2099 31.6471 78.1014 31.2905 78.9929 31.4688 C 80.5975 31.6471 81.8456 33.0734 81.6673 34.6781 C 81.6673 35.3912 81.3107 36.2827 80.5975 36.6393 C 81.3107 37.1742 81.6673 38.2439 81.489 39.1354 C 81.3107 40.74 79.8843 41.9881 78.2797 41.8098 L 77.9231 41.8098 C 77.5665 43.2361 76.1402 44.1276 74.7138 43.9493 C 74.3572 43.9493 74.0007 43.771 73.6441 43.5927 C 72.9309 44.3059 72.0394 44.6625 70.9697 44.6625 C 70.2565 44.6625 69.7216 44.3059 69.1867 43.9493 C 68.6519 44.4842 67.7604 44.6625 67.0472 44.6625 C 65.4426 44.4842 64.1945 43.0579 64.3728 41.4532 C 64.5511 40.3835 65.2643 39.3137 66.334 38.9571 L 66.334 38.2439 C 64.7294 37.8873 63.8379 36.1044 64.1945 34.4998 C 64.5511 33.0734 65.7992 32.182 67.2255 32.3602 C 67.0472 32.0037 67.0472 31.4688 67.0472 31.1122 C 67.2255 29.5076 68.6519 28.2595 70.2565 28.4378 C 71.5046 28.6161 72.5743 29.5076 72.9309 30.7556 Z " stroke-width="1.7829338312149048"/>
    <path id="ID0.26839282596483827" fill="#BE1E2D" stroke="#231F20" stroke-linecap="round" stroke-linejoin="round" d="M 67.0472 29.5076 L 62.9465 31.8254 C 62.2333 32.182 61.3418 32.0037 60.9852 31.2905 C 60.9852 31.2905 60.9852 31.2905 60.9852 31.2905 L 58.6674 27.1897 C 58.3108 26.4766 58.4891 25.5851 59.2023 25.2285 C 59.2023 25.2285 59.2023 25.2285 59.2023 25.2285 L 63.3031 22.9107 C 64.0162 22.5541 64.9077 22.7324 65.2643 23.4456 C 65.2643 23.4456 65.2643 23.4456 65.2643 23.4456 L 67.5821 27.5463 C 67.9387 28.0812 67.7604 28.9727 67.2255 29.3293 C 67.0472 29.3293 67.0472 29.5076 67.0472 29.5076 Z " stroke-width="1.7829338312149048"/>
    <path id="ID0.9713004296645522" fill="#BE1E2D" stroke="#231F20" stroke-linecap="round" stroke-linejoin="round" d="M 54.9233 18.6317 L 50.1093 18.9882 C 49.3962 18.9882 48.683 18.2751 48.5047 17.5619 L 48.1481 12.748 C 48.1481 12.0348 48.8613 11.3216 49.5745 11.1433 L 54.3884 10.7867 C 55.2799 10.7867 55.993 11.3216 55.993 12.2131 L 56.3496 17.027 C 56.1713 17.7402 55.6364 18.4534 54.9233 18.6317 Z " stroke-width="1.7829338312149048"/>
    <path id="ID0.7196992384269834" fill="#BE1E2D" stroke="#231F20" stroke-linecap="round" stroke-linejoin="round" d="M 29.249 10.7867 L 25.3266 7.9341 C 24.6134 7.5775 24.4351 6.8643 24.7917 6.1511 C 24.7917 6.1511 24.7917 5.9728 24.97 5.9728 L 27.8227 2.0504 C 28.1793 1.3372 28.8924 1.1589 29.6056 1.5155 C 29.6056 1.5155 29.7839 1.5155 29.7839 1.6938 L 33.7064 4.5465 C 34.4195 4.9031 34.5978 5.6162 34.2412 6.3294 C 34.2412 6.3294 34.2412 6.5077 34.0629 6.5077 L 31.2102 10.4302 C 30.8537 10.965 29.9622 11.1433 29.249 10.7867 C 29.249 10.7867 29.249 10.7867 29.249 10.7867 Z " stroke-width="1.7829338312149048"/>
    <path id="ID0.9369668094441295" fill="none" stroke="#FFF100" stroke-linecap="round" stroke-linejoin="round" d="M 56.3496 19.3448 L 60.807 13.8177 " stroke-width="1.7829338312149048"/>
    <path id="ID0.01696129236370325" fill="none" stroke="#FFF100" stroke-linecap="round" stroke-linejoin="round" d="M 36.5591 8.2906 L 40.8381 2.7635 " stroke-width="1.7829338312149048"/>
    <path id="ID0.20967063819989562" fill="#FFEBAE" d="M 72.5743 45.0191 L 11.9546 45.0191 C 5.8926 45.0191 1.7918 37.5308 3.9314 30.5773 C 8.567 16.1356 19.9778 5.9728 33.1715 5.9728 C 36.3808 5.9728 39.59 6.5077 42.621 7.5775 C 42.4427 7.5775 42.2644 7.5775 42.2644 7.7558 C 53.3186 11.4999 61.6984 22.5541 64.1945 36.461 C 65.086 41.2749 68.4736 45.0191 72.5743 45.0191 Z " stroke-width="1.7829338312149048"/>
    <path id="ID0.02154682297259569" fill="none" stroke="#FFFFFF" stroke-linecap="round" stroke-linejoin="round" d="M 9.4585 26.12 C 13.3809 18.6317 19.0863 12.9263 25.8614 10.4302 " stroke-width="1.7829338312149048"/>
    <path id="ID0.06361814867705107" fill="#CEBD8E" stroke="#CEBD8E" stroke-linecap="round" stroke-linejoin="round" d="M 69.1867 45.0191 L 12.1329 45.0191 C 6.6058 45.0191 2.505 38.6005 3.7531 32.0037 C 4.6445 36.461 7.8538 40.2052 11.9546 40.2052 L 65.086 40.2052 C 65.2643 41.6315 69.1867 43.2361 69.1867 45.0191 Z " stroke-width="1.7829338312149048"/>
    <path id="ID0.3869165335781872" fill="#CEBD8E" d="M 40.3032 26.12 C 40.7454 26.12 41.1465 26.3001 41.4372 26.5907 C 41.7278 26.8813 41.9079 27.2825 41.9079 27.7246 C 41.9079 28.1668 41.7278 28.5679 41.4372 28.8586 C 41.1465 29.1492 40.7454 29.3293 40.3032 29.3293 C 39.861 29.3293 39.4599 29.1492 39.1693 28.8586 C 38.8786 28.5679 38.6986 28.1668 38.6986 27.7246 C 38.6986 27.2825 38.8786 26.8813 39.1693 26.5907 C 39.4599 26.3001 39.861 26.12 40.3032 26.12 Z " stroke-width="1.7829338312149048"/>
    <path id="ID0.18960871454328299" fill="#CEBD8E" d="M 18.7297 20.058 C 19.1719 20.058 19.573 20.2381 19.8637 20.5287 C 20.1543 20.8193 20.3344 21.2205 20.3344 21.6626 C 20.3344 22.1048 20.1543 22.506 19.8637 22.7966 C 19.573 23.0872 19.1719 23.2673 18.7297 23.2673 C 18.2875 23.2673 17.8864 23.0872 17.5958 22.7966 C 17.3051 22.506 17.1251 22.1048 17.1251 21.6626 C 17.1251 21.2205 17.3051 20.8193 17.5958 20.5287 C 17.8864 20.2381 18.2875 20.058 18.7297 20.058 Z " stroke-width="1.7829338312149048"/>
    <path id="ID0.7332960367202759" fill="#CEBD8E" d="M 25.5049 28.7944 C 25.947 28.7944 26.3482 28.9745 26.6388 29.2651 C 26.9294 29.5557 27.1095 29.9569 27.1095 30.399 C 27.1095 30.8412 26.9294 31.2423 26.6388 31.533 C 26.3482 31.8236 25.947 32.0037 25.5049 32.0037 C 25.0627 32.0037 24.6615 31.8236 24.3709 31.533 C 24.0803 31.2423 23.9002 30.8412 23.9002 30.399 C 23.9002 29.9569 24.0803 29.5557 24.3709 29.2651 C 24.6615 28.9745 25.0627 28.7944 25.5049 28.7944 Z " stroke-width="1.7829338312149048"/>
    <path id="ID0.5612127794884145" fill="#CEBD8E" d="M 12.4894 30.399 C 12.9316 30.399 13.3328 30.5791 13.6234 30.8697 C 13.914 31.1603 14.0941 31.5615 14.0941 32.0037 C 14.0941 32.4458 13.914 32.847 13.6234 33.1376 C 13.3328 33.4282 12.9316 33.6083 12.4894 33.6083 C 12.0473 33.6083 11.6461 33.4282 11.3555 33.1376 C 11.0649 32.847 10.8848 32.4458 10.8848 32.0037 C 10.8848 31.5615 11.0649 31.1603 11.3555 30.8697 C 11.6461 30.5791 12.0473 30.399 12.4894 30.399 Z " stroke-width="1.7829338312149048"/>
    <path id="ID0.9774294998496771" fill="#CEBD8E" d="M 44.5823 17.027 C 45.0244 17.027 45.4256 17.2071 45.7162 17.4977 C 46.0068 17.7883 46.1869 18.1895 46.1869 18.6317 C 46.1869 19.0738 46.0068 19.475 45.7162 19.7656 C 45.4256 20.0562 45.0244 20.2363 44.5823 20.2363 C 44.1401 20.2363 43.7389 20.0562 43.4483 19.7656 C 43.1577 19.475 42.9776 19.0738 42.9776 18.6317 C 42.9776 18.1895 43.1577 17.7883 43.4483 17.4977 C 43.7389 17.2071 44.1401 17.027 44.5823 17.027 Z " stroke-width="1.7829338312149048"/>
    <path id="ID0.950283263809979" fill="#CEBD8E" d="M 52.2489 29.5076 C 52.691 29.5076 53.0922 29.6876 53.3828 29.9782 C 53.6734 30.2689 53.8535 30.67 53.8535 31.1122 C 53.8535 31.5544 53.6734 31.9555 53.3828 32.2461 C 53.0922 32.5368 52.691 32.7168 52.2489 32.7168 C 51.8067 32.7168 51.4055 32.5368 51.1149 32.2461 C 50.8243 31.9555 50.6442 31.5544 50.6442 31.1122 C 50.6442 30.67 50.8243 30.2689 51.1149 29.9782 C 51.4055 29.6876 51.8067 29.5076 52.2489 29.5076 Z " stroke-width="1.7829338312149048"/>
    <path id="ID0.9049051431939006" fill="#CEBD8E" d="M 31.5668 13.8177 C 32.009 13.8177 32.4102 13.9978 32.7008 14.2884 C 32.9914 14.579 33.1715 14.9802 33.1715 15.4224 C 33.1715 15.8645 32.9914 16.2657 32.7008 16.5563 C 32.4102 16.8469 32.009 17.027 31.5668 17.027 C 31.1247 17.027 30.7235 16.8469 30.4329 16.5563 C 30.1423 16.2657 29.9622 15.8645 29.9622 15.4224 C 29.9622 14.9802 30.1423 14.579 30.4329 14.2884 C 30.7235 13.9978 31.1247 13.8177 31.5668 13.8177 Z " stroke-width="1.7829338312149048"/>
    <path id="ID0.2982359016314149" fill="none" stroke="#FFF100" stroke-linecap="round" stroke-linejoin="round" d="M 69.1867 12.5697 L 65.086 14.8875 " stroke-width="1.7829338312149048"/>
    <path id="ID0.03489873092621565" fill="none" stroke="#FFF100" stroke-linecap="round" stroke-linejoin="round" d="M 55.2799 8.1123 L 50.6442 8.6472 " stroke-width="1.7829338312149048"/>
    <path id="ID0.031841687858104706" fill="none" stroke="#231F20" stroke-linecap="round" stroke-linejoin="round" d="M 72.5743 45.0191 L 11.9546 45.0191 C 5.8926 45.0191 1.7918 37.5308 3.9314 30.5773 C 8.567 16.1356 19.9778 5.9728 33.1715 5.9728 C 36.3808 5.9728 39.59 6.5077 42.621 7.5775 C 42.4427 7.5775 42.2644 7.5775 42.2644 7.7558 C 53.3186 11.4999 61.6984 22.5541 64.1945 36.461 C 65.086 41.2749 68.4736 45.0191 72.5743 45.0191 Z " stroke-width="1.7829338312149048"/>
  </g>
</svg>