<svg xmlns="http://www.w3.org/2000/svg" xmlns:xlink="http://www.w3.org/1999/xlink" version="1.1" width="80.26835584697265" height="55.72034788188476" viewBox="1.0323255059265137 1.0273256299041749 80.26835584697265 55.72034788188476">
  <!-- Exported by Scratch - http://scratch.mit.edu/ -->
  <g id="ID0.373455704189837">
    <g id="layer1">
      <path id="path4727-5" fill="#4e9a06" stroke="#231f20" stroke-width="2.72534895" d="M 79.938 28.888 C 79.938 43.522 62.58 55.385 41.167 55.385 C 19.754 55.385 2.395 43.522 2.395 28.888 C 2.395 14.253 19.754 2.39 41.167 2.39 C 62.58 2.39 79.938 14.253 79.938 28.888 Z "/>
      <path id="path6744" fill="#356804" stroke="none" d="M 41.173 3.43 C 37.478 3.43 33.909 3.808 30.539 4.494 C 28.945 5.068 27.385 5.683 25.822 6.348 C 24.38 7.067 23.013 7.964 21.65 8.829 C 19.799 10.176 17.851 11.399 16.006 12.755 C 13.867 14.404 11.877 16.247 9.926 18.127 C 9.083 18.937 8.315 19.805 7.608 20.744 C 6.449 22.223 5.339 23.748 4.309 25.325 C 4.279 25.472 4.254 25.614 4.227 25.761 C 5.328 24.386 6.471 23.04 7.581 21.671 C 9.033 19.988 10.381 18.195 12.08 16.763 C 13.39 15.575 14.747 14.424 16.224 13.464 C 17.28 12.757 18.282 11.962 19.387 11.337 C 21.383 10.15 23.423 8.998 25.468 7.902 C 26.301 7.486 27.096 6.94 28.003 6.702 C 30.66 5.762 33.402 5.164 36.129 4.494 C 37.584 4.095 39.1 3.971 40.6 4.085 C 42.827 4.24 45.019 4.64 47.199 5.121 C 48.913 5.534 50.651 5.966 52.352 6.429 C 55.562 7.599 58.715 8.856 61.841 10.247 C 62.693 10.694 63.523 11.149 64.322 11.692 C 66.532 13.087 68.498 14.827 70.539 16.464 C 71.619 17.381 72.634 18.413 73.566 19.49 C 74.708 20.741 75.737 22.102 76.919 23.307 C 77.139 23.58 77.233 24.467 77.71 24.125 C 77.313 23.066 76.387 22.345 75.747 21.453 C 74.891 20.336 74.065 19.203 73.075 18.209 C 72.209 17.223 71.343 16.224 70.348 15.373 C 68.994 14.083 67.528 12.945 66.04 11.828 C 64.468 10.748 62.819 9.784 61.159 8.856 C 59.556 8.016 57.953 7.14 56.279 6.457 C 54.975 5.864 53.613 5.411 52.243 5.012 C 50.994 4.624 49.743 4.255 48.48 3.921 C 46.115 3.599 43.676 3.43 41.173 3.43 Z M 38.91 6.675 C 38.157 6.716 37.425 6.886 36.674 6.975 C 34.523 7.337 32.367 7.766 30.294 8.474 C 28.846 8.918 27.428 9.405 26.013 9.947 C 24.61 10.538 23.199 11.1 21.868 11.855 C 19.753 12.979 17.653 14.151 15.652 15.482 C 13.991 16.68 12.386 17.966 10.825 19.299 C 9.017 20.858 7.324 22.554 5.699 24.316 C 5.327 24.69 4.677 24.973 4.636 25.571 C 4.665 26.002 5.015 26.069 5.318 25.952 C 5.017 26.124 4.698 26.374 4.636 26.688 C 4.396 26.83 4.182 27.009 4.172 27.343 C 4.358 27.944 5.198 27.695 5.618 27.506 C 6.443 27.137 7.332 27.069 8.181 26.77 C 9.934 26.197 11.65 25.525 13.307 24.698 C 14.813 23.999 16.276 23.141 17.751 22.38 C 19.586 21.664 21.442 21.053 23.368 20.663 C 24.532 20.396 25.741 20.254 26.913 20.035 C 29.788 19.583 32.67 19.417 35.556 19.054 C 37.251 18.85 38.954 18.627 40.655 18.481 C 41.863 18.347 43.097 18.335 44.309 18.236 C 45.239 18.156 46.158 18.172 47.09 18.181 C 49.264 18.128 51.435 18.214 53.607 18.318 C 55.393 18.339 57.154 18.669 58.923 18.89 C 60.238 19.106 61.591 19.262 62.85 19.736 C 64.039 20.107 65.173 20.593 66.313 21.099 C 67.505 21.64 68.656 22.291 69.803 22.926 C 71.383 23.756 72.906 24.68 74.52 25.434 C 75.169 25.648 75.82 25.915 76.374 26.334 C 76.734 26.79 77.652 26.394 77.137 25.898 C 77.369 25.757 77.399 25.398 76.974 25.298 C 75.404 24.209 73.958 22.905 72.393 21.808 C 71.07 20.803 69.707 19.869 68.33 18.945 C 66.287 17.499 63.918 16.701 61.65 15.727 C 59.864 14.97 57.994 14.428 56.115 13.982 C 53.934 13.501 51.759 13.065 49.544 12.783 C 48.057 12.569 46.544 12.353 45.045 12.265 C 42.934 12.114 40.837 11.829 38.719 11.801 C 38.279 11.795 37.85 11.813 37.41 11.828 C 35.401 12.168 33.401 12.583 31.412 13.028 C 29.452 13.467 27.435 13.742 25.549 14.473 C 22.747 15.631 19.916 16.684 17.151 17.936 C 15.953 18.52 14.781 19.16 13.716 19.981 C 11.005 21.911 8.274 23.845 5.59 25.816 C 5.566 25.826 5.534 25.831 5.509 25.843 C 5.615 25.756 5.692 25.659 5.727 25.516 C 6.113 24.929 6.601 24.394 7.145 23.962 C 9.134 22.231 11.149 20.515 13.28 18.972 C 14.04 18.399 14.814 17.84 15.652 17.39 C 18.135 15.959 20.7 14.726 23.314 13.573 C 24.927 12.795 26.596 12.048 28.331 11.61 C 29.911 11.199 31.539 10.993 33.13 10.628 C 34.773 10.244 36.454 10.088 38.119 9.838 C 39.361 9.739 40.592 9.632 41.828 9.865 C 43 10.046 44.191 10.222 45.372 10.328 C 47.503 10.541 49.615 10.922 51.725 11.283 C 53.849 11.568 55.901 12.123 57.942 12.782 C 60.602 13.711 63.249 14.761 65.713 16.163 C 67.431 17.062 69.043 18.165 70.566 19.381 C 71.559 20.116 72.431 21.015 73.402 21.78 C 74.444 22.708 75.562 23.551 76.456 24.643 C 76.603 25.114 77.562 25.749 77.656 24.943 C 77.184 24.352 76.594 23.907 76.129 23.307 C 75.49 22.544 74.718 21.893 74.029 21.18 C 72.954 20.145 71.911 19.076 70.784 18.099 C 69.733 17.174 68.582 16.336 67.458 15.509 C 66.167 14.746 64.962 13.876 63.613 13.219 C 61.204 11.955 58.697 10.833 56.115 10.001 C 53.336 9.077 50.545 8.242 47.663 7.738 C 46.252 7.494 44.853 7.237 43.436 7.029 C 42.196 6.866 40.921 6.763 39.673 6.675 C 39.42 6.653 39.161 6.661 38.91 6.675 Z M 55.952 20.662 C 55.227 20.652 54.492 20.668 53.77 20.69 C 50.887 20.797 48.038 21.007 45.181 21.426 C 42.349 21.712 39.484 21.986 36.647 22.216 C 33.047 22.442 29.448 22.46 25.849 22.707 C 24.418 22.84 22.969 23.023 21.569 23.362 C 20.484 23.578 19.378 23.739 18.351 24.18 C 16.978 24.638 15.676 25.27 14.37 25.897 C 12.575 26.658 10.68 27.14 8.753 27.37 C 7.774 27.472 6.815 27.662 5.836 27.752 C 5.395 27.787 4.524 27.521 4.445 28.133 C 4.612 28.38 4.813 28.475 5.072 28.515 C 5.505 28.582 6.056 28.476 6.463 28.597 C 8.635 28.834 10.783 29.037 12.925 29.497 C 14.703 29.845 16.452 30.393 18.215 30.805 C 18.87 30.919 19.51 31.051 20.178 31.051 C 21.265 31.098 22.382 31.206 23.45 30.942 C 24.135 30.734 24.573 30.113 25.14 29.715 C 25.738 29.338 26.484 29.329 27.158 29.388 C 29.207 29.526 31.242 29.752 33.293 29.851 C 35.523 29.895 37.745 29.754 39.973 29.687 C 41.422 29.612 42.864 29.438 44.309 29.306 C 44.957 29.163 45.516 28.804 46.108 28.515 C 46.893 27.998 47.759 27.575 48.481 26.961 C 49.243 26.485 50.12 26.294 50.962 26.034 C 51.655 25.736 52.357 25.519 53.089 25.352 C 54.471 24.959 55.861 24.599 57.288 24.425 C 58.572 24.144 59.888 24.136 61.187 23.962 C 61.98 23.884 62.792 23.746 63.586 23.88 C 64.659 23.964 65.609 24.56 66.585 24.97 C 67.912 25.612 69.199 26.274 70.594 26.743 C 72.005 27.264 73.541 27.189 75.011 27.37 C 76.119 27.388 77.226 27.346 78.337 27.288 C 78.333 27.243 78.314 27.197 78.31 27.152 C 76.611 26.763 74.896 26.445 73.238 25.897 C 70.86 24.99 68.64 23.685 66.34 22.598 C 65.117 22.078 63.922 21.503 62.605 21.289 C 61.122 21.017 59.605 20.877 58.106 20.744 C 57.384 20.707 56.676 20.672 55.952 20.662 Z M 5.072 28.515 C 4.961 28.489 4.857 28.452 4.745 28.433 C 4.028 28.625 4.457 29.66 5.072 29.578 C 5.866 29.986 6.673 30.416 7.417 30.914 C 10.905 32.996 14.381 35.078 17.942 37.022 C 19.575 38.05 21.352 38.768 23.15 39.422 C 25.368 40.101 27.643 40.632 29.885 41.221 C 32.051 41.717 34.227 42.144 36.429 42.421 C 38.271 42.481 40.095 42.375 41.937 42.312 C 43.506 42.225 45.086 42.176 46.654 42.066 C 48.151 41.898 49.657 41.875 51.153 41.685 C 52.724 41.544 54.288 41.329 55.843 41.058 C 57.702 40.72 59.48 40.06 61.269 39.449 C 62.311 39.037 63.371 38.676 64.35 38.113 C 64.997 37.745 65.667 37.385 66.231 36.886 C 67.389 36.065 68.431 35.098 69.476 34.132 C 70.132 33.517 70.733 32.835 71.412 32.251 C 72.422 31.628 73.415 30.977 74.384 30.287 C 74.64 30.12 74.893 29.943 75.147 29.769 C 75.68 29.463 76.199 29.154 76.729 28.842 C 77.103 28.729 77.558 28.609 77.683 28.297 C 77.909 28.162 78.136 28.02 78.365 27.888 C 78.363 27.861 78.367 27.833 78.365 27.806 C 78.147 27.932 77.929 28.065 77.71 28.188 C 77.719 28.116 77.709 28.032 77.683 27.942 C 77.18 27.372 76.483 28.006 75.883 28.024 C 74.124 28.329 72.31 28.59 70.539 28.815 C 69.894 28.811 69.232 28.978 68.631 28.679 C 67.465 28.189 66.717 27.031 65.577 26.497 C 65.231 26.25 64.788 26.182 64.377 26.252 C 63.293 26.698 62.359 27.445 61.623 28.379 C 61.096 28.989 60.501 29.555 59.933 30.124 C 59.464 30.678 58.958 31.218 58.215 31.296 C 57.062 31.634 55.869 31.759 54.697 32.005 C 54.054 32.145 53.554 32.608 53.225 33.178 C 52.816 33.865 52.475 34.646 51.807 35.114 C 51.097 35.68 50.159 35.688 49.299 35.686 C 48.001 35.693 46.685 35.504 45.4 35.768 C 43.829 35.963 42.259 36.104 40.682 36.231 C 39.003 36.447 37.28 36.417 35.611 36.122 C 33.288 35.822 30.958 35.676 28.631 35.413 C 27.333 35.304 26.035 35.138 24.759 34.868 C 22.167 34.192 19.605 33.428 17.07 32.55 C 15.149 31.817 13.278 30.905 11.344 30.206 C 9.893 29.636 8.406 29.221 6.872 28.979 C 6.266 28.881 5.668 28.653 5.073 28.515 Z M 78.392 29.442 C 77.139 30.949 75.894 32.468 74.629 33.968 C 73.447 35.346 72.272 36.741 71.085 38.113 C 70.213 38.99 69.349 39.884 68.358 40.621 C 66.909 41.804 65.384 42.869 63.75 43.757 C 62.219 44.6 60.694 45.477 59.033 46.02 C 56.112 47.069 53.202 48.25 50.144 48.801 C 48.377 49.212 46.575 49.518 44.772 49.701 C 42.896 49.889 41.07 50.256 39.183 50.301 C 37.72 50.356 36.255 50.028 34.82 49.783 C 32.809 49.399 30.854 48.842 28.876 48.31 C 27.855 47.99 26.797 47.698 25.822 47.247 C 24.481 46.526 23.189 45.722 21.841 45.011 C 19.736 43.832 17.66 42.602 15.706 41.167 C 12.367 38.252 9.095 35.198 6.081 31.923 L 3.955 29.66 C 3.967 29.953 3.982 30.242 4.009 30.533 C 4.013 30.539 4.005 30.554 4.009 30.56 C 4.111 30.714 4.229 30.862 4.309 31.023 C 5.571 33.06 6.896 35.053 8.426 36.886 C 9.682 38.489 11.028 40.007 12.489 41.412 C 13.976 42.891 15.412 44.448 17.097 45.693 C 18.439 46.73 19.793 47.737 21.241 48.61 C 22.839 49.617 24.461 50.584 26.149 51.419 C 28.366 52.36 30.689 53.03 32.993 53.709 C 35.626 54.113 38.362 54.336 41.173 54.336 C 41.614 54.336 42.045 54.319 42.482 54.309 C 42.582 54.296 42.682 54.296 42.782 54.282 C 44.937 53.87 47.126 53.601 49.271 53.137 C 51.792 52.468 54.213 51.534 56.661 50.628 C 58.209 50.03 59.682 49.258 61.187 48.556 C 64.319 46.878 67.277 44.78 69.83 42.257 C 70.699 41.378 71.55 40.485 72.311 39.503 C 73.4 38.212 74.445 36.878 75.311 35.414 C 76.384 33.763 77.368 32.06 78.337 30.342 C 78.362 30.043 78.383 29.744 78.392 29.442 Z " stroke-width="1"/>
      <path id="Shine-2" fill="#bfef90" d="M 19.05 14.79 C 15.666 16.712 14.098 19.655 12.87 18.206 C 11.642 16.758 13.391 14.028 16.775 12.106 C 20.158 10.185 23.895 9.801 25.123 11.249 C 26.35 12.698 22.432 12.87 19.05 14.79 Z " stroke-width="1"/>
    </g>
  </g>
</svg>