<svg xmlns="http://www.w3.org/2000/svg" xmlns:xlink="http://www.w3.org/1999/xlink" version="1.1" width="50.58958466739387" height="94.75746567935676" viewBox="-0.27375219211444635 -0.42036546215877313 50.58958466739387 94.75746567935676">
  <defs>
    <linearGradient id="grad_1" x2="1">
      <stop offset="0" stop-color="#663B00" stop-opacity="1"/>
      <stop offset="1" stop-color="#CC7700" stop-opacity="1"/>
    </linearGradient>
  <linearGradient id="grad_1-,0,0,1.529411792755127,-187,-171.4" x2="49.6698" x1="0.3723" y1="0.2257" y2="0.2257" gradientUnits="userSpaceOnUse">
      <stop offset="0" stop-color="#663B00" stop-opacity="1"/>
      <stop offset="1" stop-color="#CC7700" stop-opacity="1"/>
    </linearGradient></defs>
  <!-- Exported by Scratch - http://scratch.mit.edu/ -->
  <path id="ID0.9125168975442648" fill="#FFFFFF" stroke="none" d="M 20 64 L 30 64 L 30 88.5 L 20 88.5 L 20 64 Z " stroke-width="1"/>
  <path id="ID0.30706111527979374" fill="#FFFFFF" stroke="none" d="M 23.1229 79.4924 C 24.0308 79.8225 24.566 80.911 24.6968 82.4035 C 24.8286 83.8964 24.5562 85.7925 23.8491 87.7369 C 23.142 89.6814 22.1329 91.3095 21.073 92.3691 C 20.014 93.429 18.9046 93.9194 17.9968 93.5893 C 17.0889 93.2592 16.5537 92.1707 16.4229 90.6781 C 16.2911 89.1852 16.5635 87.2892 17.2706 85.3447 C 17.9776 83.4003 18.9868 81.7721 20.0467 80.7126 C 21.1057 79.6527 22.2151 79.1623 23.1229 79.4924 Z " stroke-width="0.999999981579254"/>
  <path id="ID0.40489443810656667" fill="url(#grad_1-,0,0,1.529411792755127,-187,-171.4)" stroke="none" d="M 19.5 0.5059 C 27.085 0.304 36.348 -1.2682 42 6.0118 C 47.86 13.5609 50.376 27.6392 49.5 39.2765 C 48.62 50.8679 42.617 61.5493 36.5 69.4824 C 33.739 73.3273 29.129 71.6664 25 71.7765 C 21.304 71.8652 16.573 72.9404 14 69.4824 C 7.768 61.2602 1.447 50.7287 0.5 39.2765 C -0.408 28.1286 3.676 16.4546 8 7.5412 C 10.554 2.4192 15.425 0.6145 19.5 0.5059 Z " stroke-width="1.2921107599231676"/>
  <path id="ID0.30706111527979374" fill="#FFFFFF" stroke="none" d="M 24.7567 79.8335 C 23.9605 80.3305 23.6841 81.4933 23.8814 82.971 C 24.0779 84.4491 24.7477 86.2414 25.8432 87.9965 C 26.9388 89.7517 28.2547 91.1406 29.4963 91.9664 C 30.7372 92.7927 31.9032 93.0551 32.6994 92.5581 C 33.4956 92.0611 33.772 90.8984 33.5747 89.4207 C 33.3782 87.9425 32.7084 86.1503 31.6129 84.3951 C 30.5173 82.64 29.2014 81.2511 27.9597 80.4253 C 26.7189 79.5989 25.5529 79.3365 24.7567 79.8335 Z " stroke-width="0.9859176308098159"/>
</svg>