<svg xmlns="http://www.w3.org/2000/svg" xmlns:xlink="http://www.w3.org/1999/xlink" version="1.1" width="81.42745917840257" height="64.66071265740648" viewBox="0.3848240683304538 0.8603957007157077 81.42745917840257 64.66071265740648">
  <!-- Exported by Scratch - http://scratch.mit.edu/ -->
  <path id="ID0.43220555409789085" fill="#A85B00" stroke="#A85B00" stroke-width="1.710464673343551" stroke-linecap="round" d="M 40.194 22.8789 C 49.6276 22.7315 59.1079 22.8602 68.529 23.2862 C 70.8874 23.3937 74.4735 21.9968 74.3217 24.1007 C 73.7146 32.5121 69.7917 40.9153 66.3736 48.9838 C 64.484 53.5638 63.6056 60.4048 58.4703 62.5046 C 49.9779 65.7512 39.736 64.6004 30.5394 63.3191 C 27.1967 62.8312 25.1059 60.0432 23.2648 57.8619 C 20.1655 54.1991 17.9202 49.9523 15.9453 46.0516 C 12.6134 39.3898 7.8005 32.7059 6.7847 25.7704 C 6.5081 23.8807 10.3187 23.9866 12.6672 23.6934 C 21.7488 22.6231 31.1286 23.019 40.194 22.8789 Z "/>
  <path id="ID0.8022473398596048" fill="#703D00" stroke="none" d="M 42.1782 25.7407 C 50.79 25.7407 58.5943 26.6855 64.2453 28.2111 C 69.8963 29.7375 73.3941 31.8454 73.3941 34.1709 C 73.3941 36.4963 69.8963 38.6042 64.2453 40.1306 C 58.5943 41.6562 50.79 42.601 42.1782 42.601 C 33.5664 42.601 25.7621 41.6562 20.1111 40.1306 C 14.4601 38.6042 10.9622 36.4963 10.9622 34.1709 C 10.9622 31.8454 14.4601 29.7375 20.1111 28.2111 C 25.7621 26.6855 33.5664 25.7407 42.1782 25.7407 Z " stroke-width="0.9235221282027487"/>
  <path id="ID0.818717781919986" fill="#F0C444" stroke="#A85B00" stroke-width="1.817962108090069" stroke-linecap="round" d="M 41.2794 1.7819 C 52.3746 2.0985 63.0581 6.9224 72.6029 12.02 C 76.8501 14.6036 81.433 19.3363 80.8535 23.8281 C 80.2721 28.3105 76.3972 30.6265 69.1991 32.9658 C 61.9999 35.3059 52.0589 36.7547 41.0876 36.7547 C 30.1162 36.7547 20.1752 35.3059 12.9761 32.9658 C 5.7779 30.6265 0.8784 28.4206 1.3216 23.8281 C 1.9692 17.7386 8.8182 13.1539 14.417 9.7831 C 22.5986 5.5511 32.0177 1.5152 41.2794 1.7819 Z "/>
</svg>